<mxfile host="app.diagrams.net" agent="Mozilla/5.0 (Windows NT 10.0; Win64; x64) AppleWebKit/537.36 (KHTML, like Gecko) Chrome/127.0.0.0 Safari/537.36" version="24.7.7">
  <diagram name="Página-1" id="i0eWZmUpmiWmabESyE_h">
    <mxGraphModel dx="1434" dy="772" grid="1" gridSize="10" guides="1" tooltips="1" connect="1" arrows="1" fold="1" page="1" pageScale="1" pageWidth="1169" pageHeight="827" math="0" shadow="0">
      <root>
        <mxCell id="0" />
        <mxCell id="1" parent="0" />
        <mxCell id="mDGtLJkJGE_eIqr4GVcM-1" value="cliente" style="shape=umlActor;verticalLabelPosition=bottom;verticalAlign=top;html=1;outlineConnect=0;" parent="1" vertex="1">
          <mxGeometry x="20" y="230" width="30" height="60" as="geometry" />
        </mxCell>
        <mxCell id="mDGtLJkJGE_eIqr4GVcM-2" value="&#xa;&lt;span style=&quot;color: rgb(0, 0, 0); font-family: Helvetica; font-size: 12px; font-style: normal; font-variant-ligatures: normal; font-variant-caps: normal; font-weight: 400; letter-spacing: normal; orphans: 2; text-align: center; text-indent: 0px; text-transform: none; widows: 2; word-spacing: 0px; -webkit-text-stroke-width: 0px; white-space: normal; background-color: rgb(251, 251, 251); text-decoration-thickness: initial; text-decoration-style: initial; text-decoration-color: initial; display: inline !important; float: none;&quot;&gt;acceso a modulo de creacion agenda&lt;/span&gt;&#xa;&#xa;" style="ellipse;whiteSpace=wrap;html=1;" parent="1" vertex="1">
          <mxGeometry x="100" y="160" width="140" height="90" as="geometry" />
        </mxCell>
        <mxCell id="mDGtLJkJGE_eIqr4GVcM-5" value="ingresar datos de agenda" style="ellipse;whiteSpace=wrap;html=1;" parent="1" vertex="1">
          <mxGeometry x="320" y="160" width="120" height="80" as="geometry" />
        </mxCell>
        <mxCell id="mDGtLJkJGE_eIqr4GVcM-6" value="mostrar resumen de la creación de la agenda" style="ellipse;whiteSpace=wrap;html=1;" parent="1" vertex="1">
          <mxGeometry x="510" y="160" width="120" height="80" as="geometry" />
        </mxCell>
        <mxCell id="mDGtLJkJGE_eIqr4GVcM-7" value="validar agenda creada" style="ellipse;whiteSpace=wrap;html=1;" parent="1" vertex="1">
          <mxGeometry x="160" y="290" width="160" height="60" as="geometry" />
        </mxCell>
        <mxCell id="mDGtLJkJGE_eIqr4GVcM-11" value="&#xa;&lt;span style=&quot;color: rgb(0, 0, 0); font-family: Helvetica; font-size: 12px; font-style: normal; font-variant-ligatures: normal; font-variant-caps: normal; font-weight: 400; letter-spacing: normal; orphans: 2; text-align: center; text-indent: 0px; text-transform: none; widows: 2; word-spacing: 0px; -webkit-text-stroke-width: 0px; white-space: normal; background-color: rgb(251, 251, 251); text-decoration-thickness: initial; text-decoration-style: initial; text-decoration-color: initial; display: inline !important; float: none;&quot;&gt;guardar reserva en el sistema&lt;/span&gt;&#xa;&#xa;" style="ellipse;whiteSpace=wrap;html=1;" parent="1" vertex="1">
          <mxGeometry x="690" y="280" width="130" height="80" as="geometry" />
        </mxCell>
        <mxCell id="mDGtLJkJGE_eIqr4GVcM-12" value="enviar notificación al email" style="ellipse;whiteSpace=wrap;html=1;" parent="1" vertex="1">
          <mxGeometry x="410" y="270" width="120" height="80" as="geometry" />
        </mxCell>
        <mxCell id="mDGtLJkJGE_eIqr4GVcM-88" value="extend" style="endArrow=classic;html=1;rounded=0;dashed=1;strokeColor=default;align=center;verticalAlign=middle;fontFamily=Helvetica;fontSize=11;fontColor=default;labelBackgroundColor=default;exitX=1;exitY=0.5;exitDx=0;exitDy=0;" parent="1" source="mDGtLJkJGE_eIqr4GVcM-2" target="mDGtLJkJGE_eIqr4GVcM-5" edge="1">
          <mxGeometry width="50" height="50" relative="1" as="geometry">
            <mxPoint x="480" y="340" as="sourcePoint" />
            <mxPoint x="530" y="290" as="targetPoint" />
          </mxGeometry>
        </mxCell>
        <mxCell id="mDGtLJkJGE_eIqr4GVcM-90" value="extend" style="endArrow=classic;html=1;rounded=0;dashed=1;strokeColor=default;align=center;verticalAlign=middle;fontFamily=Helvetica;fontSize=11;fontColor=default;labelBackgroundColor=default;exitX=1;exitY=0.5;exitDx=0;exitDy=0;entryX=0;entryY=0.5;entryDx=0;entryDy=0;" parent="1" source="mDGtLJkJGE_eIqr4GVcM-5" target="mDGtLJkJGE_eIqr4GVcM-6" edge="1">
          <mxGeometry width="50" height="50" relative="1" as="geometry">
            <mxPoint x="490" y="350" as="sourcePoint" />
            <mxPoint x="540" y="300" as="targetPoint" />
          </mxGeometry>
        </mxCell>
        <mxCell id="mDGtLJkJGE_eIqr4GVcM-95" value="include" style="endArrow=classic;html=1;rounded=0;dashed=1;strokeColor=default;align=center;verticalAlign=middle;fontFamily=Helvetica;fontSize=11;fontColor=default;labelBackgroundColor=default;exitX=0.592;exitY=0.975;exitDx=0;exitDy=0;exitPerimeter=0;" parent="1" source="mDGtLJkJGE_eIqr4GVcM-6" target="mDGtLJkJGE_eIqr4GVcM-12" edge="1">
          <mxGeometry width="50" height="50" relative="1" as="geometry">
            <mxPoint x="470" y="330" as="sourcePoint" />
            <mxPoint x="520" y="280" as="targetPoint" />
          </mxGeometry>
        </mxCell>
        <mxCell id="mDGtLJkJGE_eIqr4GVcM-102" value="include" style="endArrow=classic;html=1;rounded=0;dashed=1;strokeColor=default;align=center;verticalAlign=middle;fontFamily=Helvetica;fontSize=11;fontColor=default;labelBackgroundColor=default;entryX=0.063;entryY=0.317;entryDx=0;entryDy=0;entryPerimeter=0;" parent="1" source="mDGtLJkJGE_eIqr4GVcM-2" target="mDGtLJkJGE_eIqr4GVcM-7" edge="1">
          <mxGeometry width="50" height="50" relative="1" as="geometry">
            <mxPoint x="540" y="400" as="sourcePoint" />
            <mxPoint x="590" y="350" as="targetPoint" />
          </mxGeometry>
        </mxCell>
        <mxCell id="VPI9NrLAF3QZY0fl5QIp-3" value="include" style="endArrow=classic;html=1;rounded=0;dashed=1;strokeColor=default;align=center;verticalAlign=middle;fontFamily=Helvetica;fontSize=11;fontColor=default;labelBackgroundColor=default;exitX=0.992;exitY=0.6;exitDx=0;exitDy=0;entryX=0;entryY=0.5;entryDx=0;entryDy=0;exitPerimeter=0;" edge="1" parent="1" source="mDGtLJkJGE_eIqr4GVcM-12" target="mDGtLJkJGE_eIqr4GVcM-11">
          <mxGeometry width="50" height="50" relative="1" as="geometry">
            <mxPoint x="749.9976837169279" y="299.9987089210993" as="sourcePoint" />
            <mxPoint x="788.06" y="358.32" as="targetPoint" />
          </mxGeometry>
        </mxCell>
        <mxCell id="VPI9NrLAF3QZY0fl5QIp-4" value="sistema" style="shape=umlActor;verticalLabelPosition=bottom;verticalAlign=top;html=1;outlineConnect=0;" vertex="1" parent="1">
          <mxGeometry x="870" y="280" width="30" height="60" as="geometry" />
        </mxCell>
      </root>
    </mxGraphModel>
  </diagram>
</mxfile>
